<svg viewBox="0 0 256 256" xmlns="http://www.w3.org/2000/svg"><path d="m228.00488 216.00586a12.00028 12.00028 0 0 1 -12 12h-176a12 12 0 1 1 0-24h176a12.00028 12.00028 0 0 1 12 12zm-92.00488-48.00586v-88a20.0226 20.0226 0 0 1 20-20h36a20.0226 20.0226 0 0 1 20 20v88a20.0226 20.0226 0 0 1 -20 20h-36a20.0226 20.0226 0 0 1 -20-20zm24-4h28v-80h-28zm-116 4v-128a20.0226 20.0226 0 0 1 20-20h36a20.0226 20.0226 0 0 1 20 20v128a20.0226 20.0226 0 0 1 -20 20h-36a20.0226 20.0226 0 0 1 -20-20zm24-4h28v-120h-28z"/></svg>