<?xml version="1.0" encoding="UTF-8" standalone="no"?>
<!DOCTYPE svg PUBLIC "-//W3C//DTD SVG 1.1//EN" "http://www.w3.org/Graphics/SVG/1.1/DTD/svg11.dtd">
<!-- Generated by Microsoft Visio, SVG Export broker-white.svg Page-1 -->
<svg xmlns="http://www.w3.org/2000/svg" xmlns:xlink="http://www.w3.org/1999/xlink" xmlns:ev="http://www.w3.org/2001/xml-events"
		xmlns:v="http://schemas.microsoft.com/visio/2003/SVGExtensions/" width="1.70313in" height="1.70313in"
		viewBox="0 0 122.625 122.625" xml:space="preserve" color-interpolation-filters="sRGB" class="st4">
	<v:documentProperties v:langID="1033" v:viewMarkup="false"/>

	<style type="text/css">
	<![CDATA[
		.st1 {fill:#ffffff;stroke:#ffffff;stroke-width:0.25}
		.st2 {stroke:#ffffff;stroke-linecap:round;stroke-linejoin:round;stroke-width:6}
		.st3 {fill:none;stroke:#ffffff;stroke-width:4.5}
		.st4 {fill:none;fill-rule:evenodd;font-size:12px;overflow:visible;stroke-linecap:square;stroke-miterlimit:3}
	]]>
	</style>

	<g v:mID="0" v:index="1" v:groupContext="foregroundPage">
		<title>Page-1</title>
		<v:pageProperties v:drawingScale="1" v:pageScale="1" v:drawingUnits="0" v:shadowOffsetX="9" v:shadowOffsetY="-9"/>
		<g id="shape1-1" v:mID="1" v:groupContext="shape" transform="translate(38.8125,-38.8125)">
			<title>Circle</title>
			<v:userDefs>
				<v:ud v:nameU="visVersion" v:val="VT0(15):26"/>
			</v:userDefs>
			<path d="M0 100.13 A22.5 22.5 0 1 1 45 100.13 A22.5 22.5 0 1 1 0 100.13 Z" class="st1"/>
		</g>
		<g id="shape10-3" v:mID="10" v:groupContext="shape" transform="translate(119.896,176.146) rotate(-45) scale(1,-1)">
			<title>Sheet.10</title>
			<path d="M0 122.63 L39.77 122.63" class="st2"/>
		</g>
		<g id="shape13-6" v:mID="13" v:groupContext="shape" transform="translate(3.47854,176.896) rotate(-135)">
			<title>Sheet.13</title>
			<path d="M0 122.63 L40.84 122.63" class="st2"/>
		</g>
		<g id="shape14-9" v:mID="14" v:groupContext="shape" transform="translate(148.021,148.021) rotate(-45) scale(1,-1)">
			<title>Sheet.14</title>
			<path d="M0 122.63 L41.63 122.63" class="st2"/>
		</g>
		<g id="shape15-12" v:mID="15" v:groupContext="shape" transform="translate(-25.3965,148.021) rotate(-135)">
			<title>Sheet.15</title>
			<path d="M0 122.63 L41.37 122.63" class="st2"/>
		</g>
		<g id="shape5-15" v:mID="5" v:groupContext="shape" transform="translate(4.5,-86.625)">
			<title>Circle.5</title>
			<v:userDefs>
				<v:ud v:nameU="visVersion" v:val="VT0(15):26"/>
			</v:userDefs>
			<path d="M0 106.88 A15.75 15.75 0 1 1 31.5 106.88 A15.75 15.75 0 0 1 -0 106.88 Z" class="st3"/>
		</g>
		<g id="shape9-17" v:mID="9" v:groupContext="shape" transform="translate(86.625,-4.5)">
			<title>Circle.9</title>
			<v:userDefs>
				<v:ud v:nameU="visVersion" v:val="VT0(15):26"/>
			</v:userDefs>
			<path d="M0 106.88 A15.75 15.75 0 1 1 31.5 106.88 A15.75 15.75 0 0 1 -0 106.88 Z" class="st3"/>
		</g>
		<g id="shape12-19" v:mID="12" v:groupContext="shape" transform="translate(4.5,-4.5)">
			<title>Circle.12</title>
			<v:userDefs>
				<v:ud v:nameU="visVersion" v:val="VT0(15):26"/>
			</v:userDefs>
			<path d="M0 106.88 A15.75 15.75 0 1 1 31.5 106.88 A15.75 15.75 0 0 1 -0 106.88 Z" class="st3"/>
		</g>
		<g id="shape6-21" v:mID="6" v:groupContext="shape" transform="translate(86.625,-86.625)">
			<title>Circle.6</title>
			<v:userDefs>
				<v:ud v:nameU="visVersion" v:val="VT0(15):26"/>
			</v:userDefs>
			<path d="M0 106.88 A15.75 15.75 0 1 1 31.5 106.88 A15.75 15.75 0 0 1 -0 106.88 Z" class="st3"/>
		</g>
	</g>
</svg>
